<?xml version="1.0" encoding="iso-8859-1"?>
<!-- Generator: Adobe Illustrator 19.0.0, SVG Export Plug-In . SVG Version: 6.00 Build 0)  -->
<svg version="1.1" id="Layer_1" xmlns="http://www.w3.org/2000/svg" xmlns:xlink="http://www.w3.org/1999/xlink" x="0px" y="0px"
	 viewBox="0 0 392.469 392.469" style="enable-background:new 0 0 392.469 392.469;" xml:space="preserve">
<path style="fill:#FFFFFF;" d="M99.038,129.681v230.141c0,6.012,4.848,10.925,10.925,10.925h172.8
	c6.012,0,10.925-4.848,10.925-10.925V129.681H99.038z"/>
<path style="fill:#56ACE0;" d="M120.824,347.41V153.018c0-0.84,0.711-1.552,1.552-1.552h147.911c0.84,0,1.552,0.711,1.552,1.552
	V347.41c0,0.84-0.711,1.552-1.552,1.552H122.375C121.535,348.962,120.824,348.25,120.824,347.41z"/>
<path style="fill:#FFC10D;" d="M319.095,107.766c6.012,0,10.925-4.848,10.925-10.925V78.61c0-6.012-4.848-10.925-10.925-10.925
	H73.567c-6.012,0-10.925,4.848-10.925,10.925v18.295c0,6.012,4.848,10.925,10.925,10.925h245.527V107.766z"/>
<g>
	<path style="fill:#194F82;" d="M319.095,45.834h-47.451V32.711C271.644,14.675,256.969,0,238.933,0h-85.204
		c-18.036,0-32.711,14.675-32.711,32.711v13.123H73.503c-18.036,0-32.711,14.675-32.711,32.711V96.84
		c0,18.036,14.675,32.711,32.711,32.711h3.62v230.206c0,18.036,14.675,32.711,32.711,32.711h172.8
		c18.036,0,32.711-14.675,32.711-32.711V129.616h3.62c18.036,0,32.711-14.675,32.711-32.711V78.61
		C351.806,60.509,337.131,45.834,319.095,45.834z M142.868,32.711c0-6.012,4.848-10.925,10.925-10.925h85.204
		c6.012,0,10.925,4.848,10.925,10.925v13.123H142.868V32.711z M293.624,359.822c0,6.012-4.848,10.925-10.925,10.925H109.963
		c-6.012,0-10.925-4.848-10.925-10.925V129.552h194.586V359.822z M330.02,96.905c0,6.012-4.848,10.925-10.925,10.925H73.567
		c-6.012,0-10.925-4.848-10.925-10.925V78.61c0-6.012,4.848-10.925,10.925-10.925h245.527c6.012,0,10.925,4.848,10.925,10.925
		V96.905L330.02,96.905z"/>
	<path style="fill:#194F82;" d="M139.765,336.873c6.012,0,10.925-4.848,10.925-10.925V174.352c0-6.012-4.848-10.925-10.925-10.925
		c-6.077,0-10.925,4.848-10.925,10.925v151.661C128.84,332.024,133.753,336.873,139.765,336.873z"/>
	<path style="fill:#194F82;" d="M196.331,336.873c6.012,0,10.925-4.848,10.925-10.925V174.352c0-6.012-4.848-10.925-10.925-10.925
		c-6.077,0-10.925,4.848-10.925,10.925v151.661C185.406,332.024,190.319,336.873,196.331,336.873z"/>
	<path style="fill:#194F82;" d="M252.897,336.873c6.012,0,10.925-4.848,10.925-10.925V174.352c0-6.012-4.849-10.925-10.925-10.925
		c-6.012,0-10.925,4.848-10.925,10.925v151.661C241.971,332.024,246.884,336.873,252.897,336.873z"/>
</g>
<g>
</g>
<g>
</g>
<g>
</g>
<g>
</g>
<g>
</g>
<g>
</g>
<g>
</g>
<g>
</g>
<g>
</g>
<g>
</g>
<g>
</g>
<g>
</g>
<g>
</g>
<g>
</g>
<g>
</g>
</svg>
